<?xml version="1.0" encoding="utf-8"?>
<!-- Generator: Adobe Illustrator 19.0.0, SVG Export Plug-In . SVG Version: 6.00 Build 0)  -->
<svg version="1.1" id="Layer_1" xmlns="http://www.w3.org/2000/svg" xmlns:xlink="http://www.w3.org/1999/xlink" x="0px" y="0px"
	 viewBox="0 0 308.8 127.1" style="enable-background:new 0 0 308.8 127.1;" xml:space="preserve">
<style type="text/css">
	.st0{fill:#333785;}
	.st1{opacity:0.5;}
	.st2{clip-path:url(#XMLID_185_);}
	.st3{filter:url(#Adobe_OpacityMaskFilter);}
	.st4{clip-path:url(#XMLID_186_);}
	.st5{enable-background:new    ;}
	.st6{clip-path:url(#XMLID_188_);fill:url(#XMLID_189_);}
	.st7{clip-path:url(#XMLID_186_);mask:url(#XMLID_187_);}
	.st8{clip-path:url(#XMLID_190_);}
	.st9{clip-path:url(#XMLID_191_);fill:url(#XMLID_192_);}
	.st10{clip-path:url(#XMLID_193_);fill:url(#XMLID_194_);}
	.st11{filter:url(#Adobe_OpacityMaskFilter_1_);}
	.st12{clip-path:url(#XMLID_195_);}
	.st13{clip-path:url(#XMLID_197_);fill:url(#XMLID_198_);}
	.st14{clip-path:url(#XMLID_195_);mask:url(#XMLID_196_);}
	.st15{clip-path:url(#XMLID_199_);}
	.st16{clip-path:url(#XMLID_200_);fill:url(#XMLID_201_);}
	.st17{clip-path:url(#XMLID_202_);fill:url(#XMLID_203_);}
	.st18{filter:url(#Adobe_OpacityMaskFilter_2_);}
	.st19{clip-path:url(#XMLID_204_);}
	.st20{clip-path:url(#XMLID_206_);fill:url(#XMLID_207_);}
	.st21{clip-path:url(#XMLID_204_);mask:url(#XMLID_205_);}
	.st22{clip-path:url(#XMLID_208_);}
	.st23{clip-path:url(#XMLID_209_);fill:url(#XMLID_210_);}
	.st24{fill:#FFFFFF;}
	.st25{clip-path:url(#XMLID_211_);fill:url(#XMLID_212_);}
	.st26{font-family:'NexaSlabBoldItalic';}
	.st27{font-size:7.731px;}
	.st28{letter-spacing:4;}
</style>
<g id="XMLID_90_">
	<path id="XMLID_122_" class="st0" d="M89.8,59.4l-8.1-11.2l-5-6.9L72,34.9l-5.1-7c-4.5-6.2-13.2-7.5-19.3-3l-0.1,0.1
		c-6.2,4.5-7.5,13.2-3,19.3l14.8,20.4v0l8.1,11.2L89.8,59.4z"/>
	<polygon id="XMLID_121_" class="st0" points="1,36.1 48.9,33.7 47.1,38.1 	"/>
	<g id="XMLID_104_" class="st1">
		<g id="XMLID_105_">
			<defs>
				<rect id="XMLID_106_" x="41.7" y="22.2" width="53.5" height="53.6"/>
			</defs>
			<clipPath id="XMLID_185_">
				<use xlink:href="#XMLID_106_"  style="overflow:visible;"/>
			</clipPath>
			<g id="XMLID_107_" class="st2">
				<defs>
					<path id="XMLID_108_" d="M54.3,50.5c0,4.4,1.2,8.4,3.2,11.9l1.6,2.3h0l0.7,0.9c3.2,3.6,7.5,6.1,12.3,6.7l17.7-12.9l-8.1-11.2v0
						l-5-6.9L72,34.9l-3.8-5.2C60.1,32.6,54.3,40.8,54.3,50.5"/>
				</defs>
				<clipPath id="XMLID_186_">
					<use xlink:href="#XMLID_108_"  style="overflow:visible;"/>
				</clipPath>
				<defs>
					<filter id="Adobe_OpacityMaskFilter" filterUnits="userSpaceOnUse" x="52" y="27.8" width="40.1" height="46.5">
						<feColorMatrix  type="matrix" values="1 0 0 0 0  0 1 0 0 0  0 0 1 0 0  0 0 0 1 0"/>
					</filter>
				</defs>
				<mask maskUnits="userSpaceOnUse" x="52" y="27.8" width="40.1" height="46.5" id="XMLID_187_">
					<g id="XMLID_155_" class="st3">
						<rect id="XMLID_160_" x="53.2" y="28.7" class="st4" width="37.8" height="44.5"/>
						<g id="XMLID_156_" class="st5">
							<g id="XMLID_157_">
								<defs>
									
										<rect id="XMLID_158_" x="50.3" y="32.6" transform="matrix(-2.614238e-02 0.9997 -0.9997 -2.614238e-02 124.9076 -19.7288)" width="43.5" height="36.7"/>
								</defs>
								<clipPath id="XMLID_188_" class="st4">
									<use xlink:href="#XMLID_158_"  style="overflow:visible;"/>
								</clipPath>
								
									<linearGradient id="XMLID_189_" gradientUnits="userSpaceOnUse" x1="-398.6441" y1="424.1581" x2="-397.6441" y2="424.1581" gradientTransform="matrix(0.9247 -35.3486 35.3486 0.9247 -14553.2139 -14413.2979)">
									<stop  offset="0" style="stop-color:#231F20"/>
									<stop  offset="1.484275e-03" style="stop-color:#242021"/>
									<stop  offset="0.109" style="stop-color:#575454"/>
									<stop  offset="0.2188" style="stop-color:#838181"/>
									<stop  offset="0.3334" style="stop-color:#A9A8A8"/>
									<stop  offset="0.451" style="stop-color:#C8C7C8"/>
									<stop  offset="0.5726" style="stop-color:#E0E0E0"/>
									<stop  offset="0.6999" style="stop-color:#F2F1F1"/>
									<stop  offset="0.8368" style="stop-color:#FCFCFC"/>
									<stop  offset="1" style="stop-color:#FFFFFF"/>
								</linearGradient>
								<polygon id="XMLID_159_" class="st6" points="90.9,74.2 92.1,28.8 53.2,27.8 52,73.2 								"/>
							</g>
						</g>
					</g>
				</mask>
				<g id="XMLID_115_" class="st7">
					<g id="XMLID_116_">
						<defs>
							<rect id="XMLID_117_" x="53.2" y="28.7" width="37.8" height="44.5"/>
						</defs>
						<clipPath id="XMLID_190_">
							<use xlink:href="#XMLID_117_"  style="overflow:visible;"/>
						</clipPath>
						<g id="XMLID_118_" class="st8">
							<defs>
								
									<rect id="XMLID_119_" x="50.3" y="32.6" transform="matrix(-2.614238e-02 0.9997 -0.9997 -2.614238e-02 124.9076 -19.7288)" width="43.5" height="36.7"/>
							</defs>
							<clipPath id="XMLID_191_">
								<use xlink:href="#XMLID_119_"  style="overflow:visible;"/>
							</clipPath>
							
								<linearGradient id="XMLID_192_" gradientUnits="userSpaceOnUse" x1="-398.6441" y1="424.1581" x2="-397.6441" y2="424.1581" gradientTransform="matrix(0.9247 -35.3486 35.3486 0.9247 -14553.2158 -14413.2988)">
								<stop  offset="0" style="stop-color:#343784"/>
								<stop  offset="1.541930e-02" style="stop-color:#323A87"/>
								<stop  offset="0.1877" style="stop-color:#2059A0"/>
								<stop  offset="0.3674" style="stop-color:#1272B3"/>
								<stop  offset="0.5558" style="stop-color:#0883C1"/>
								<stop  offset="0.7583" style="stop-color:#028EC9"/>
								<stop  offset="1" style="stop-color:#0091CC"/>
							</linearGradient>
							<polygon id="XMLID_120_" class="st9" points="90.9,74.2 92.1,28.8 53.2,27.8 52,73.2 							"/>
						</g>
					</g>
				</g>
			</g>
		</g>
	</g>
	<g id="XMLID_99_">
		<defs>
			<path id="XMLID_100_" d="M74,30.3c-20.5,24-19.7,60.6-19.7,60.6L78.5,79l3.6-11c0,0,10.2-3.6,23.7-19.3
				c13.4-15.7,16-47.6,16-47.6S94.5,6.3,74,30.3"/>
		</defs>
		<clipPath id="XMLID_193_">
			<use xlink:href="#XMLID_100_"  style="overflow:visible;"/>
		</clipPath>
		
			<linearGradient id="XMLID_194_" gradientUnits="userSpaceOnUse" x1="-401.5534" y1="434.5042" x2="-400.5534" y2="434.5042" gradientTransform="matrix(67.4938 0 0 67.4938 27156.6348 -29280.4082)">
			<stop  offset="0" style="stop-color:#E68C2F"/>
			<stop  offset="1" style="stop-color:#EEDE35"/>
		</linearGradient>
		<rect id="XMLID_101_" x="53.5" y="1" class="st10" width="68.3" height="89.8"/>
	</g>
	<g id="XMLID_85_">
		<defs>
			<path id="XMLID_86_" d="M104.1,27.8c-9.3,0-19.2,2.8-28.1,8.6c-5.2,3.4-9.6,7.5-13.1,12c-6.4,14.7-8,29.7-8.4,37.3
				c0.4,1.5,0.9,2.9,1.6,4.3l22.5-11l3.6-11c0,0,10.2-3.6,23.7-19.3c4.5-5.2,7.7-12.2,10.1-19.2C112.1,28.3,108.2,27.8,104.1,27.8
				C104.1,27.8,104.1,27.8,104.1,27.8"/>
		</defs>
		<clipPath id="XMLID_195_">
			<use xlink:href="#XMLID_86_"  style="overflow:visible;"/>
		</clipPath>
		<defs>
			<filter id="Adobe_OpacityMaskFilter_1_" filterUnits="userSpaceOnUse" x="7.7" y="-18.6" width="154.8" height="154.9">
				<feColorMatrix  type="matrix" values="1 0 0 0 0  0 1 0 0 0  0 0 1 0 0  0 0 0 1 0"/>
			</filter>
		</defs>
		<mask maskUnits="userSpaceOnUse" x="7.7" y="-18.6" width="154.8" height="154.9" id="XMLID_196_">
			<g id="XMLID_113_" class="st11">
				<rect id="XMLID_89_" x="36.3" y="9.9" class="st12" width="97.7" height="98"/>
				<g id="XMLID_114_" class="st5">
					<g id="XMLID_75_">
						<defs>
							
								<rect id="XMLID_87_" x="46.1" y="20.1" transform="matrix(-0.3059 0.9521 -0.9521 -0.3059 167.2655 -4.1475)" width="78.1" height="77.5"/>
						</defs>
						<clipPath id="XMLID_197_" class="st12">
							<use xlink:href="#XMLID_87_"  style="overflow:visible;"/>
						</clipPath>
						
							<linearGradient id="XMLID_198_" gradientUnits="userSpaceOnUse" x1="-398.8361" y1="429.4575" x2="-397.8361" y2="429.4575" gradientTransform="matrix(22.2715 -69.3111 69.3111 22.2715 -20811.0234 -37110.1016)">
							<stop  offset="0" style="stop-color:#231F20"/>
							<stop  offset="9.341151e-02" style="stop-color:#2C2829"/>
							<stop  offset="0.2439" style="stop-color:#433F40"/>
							<stop  offset="0.4327" style="stop-color:#696667"/>
							<stop  offset="0.6524" style="stop-color:#9E9C9C"/>
							<stop  offset="0.8952" style="stop-color:#E0DFE0"/>
							<stop  offset="1" style="stop-color:#FFFFFF"/>
						</linearGradient>
						<polygon id="XMLID_88_" class="st13" points="124.8,136.4 162.5,19.1 45.4,-18.6 7.7,98.7 						"/>
					</g>
				</g>
			</g>
		</mask>
		<g id="XMLID_93_" class="st14">
			<g id="XMLID_94_">
				<defs>
					<rect id="XMLID_95_" x="36.3" y="9.9" width="97.7" height="98"/>
				</defs>
				<clipPath id="XMLID_199_">
					<use xlink:href="#XMLID_95_"  style="overflow:visible;"/>
				</clipPath>
				<g id="XMLID_96_" class="st15">
					<defs>
						
							<rect id="XMLID_97_" x="46.1" y="20.1" transform="matrix(-0.3059 0.9521 -0.9521 -0.3059 167.2655 -4.1475)" width="78.1" height="77.5"/>
					</defs>
					<clipPath id="XMLID_200_">
						<use xlink:href="#XMLID_97_"  style="overflow:visible;"/>
					</clipPath>
					
						<linearGradient id="XMLID_201_" gradientUnits="userSpaceOnUse" x1="-398.8361" y1="429.4575" x2="-397.8361" y2="429.4575" gradientTransform="matrix(22.2715 -69.3111 69.3111 22.2715 -20811.0234 -37110.1055)">
						<stop  offset="0" style="stop-color:#EEDE35"/>
						<stop  offset="0.2598" style="stop-color:#EDD537"/>
						<stop  offset="0.6768" style="stop-color:#EBBE3E"/>
						<stop  offset="1" style="stop-color:#E9A744"/>
					</linearGradient>
					<polygon id="XMLID_98_" class="st16" points="124.8,136.4 162.5,19.1 45.4,-18.6 7.7,98.7 					"/>
				</g>
			</g>
		</g>
	</g>
	<g id="XMLID_82_">
		<defs>
			<path id="XMLID_83_" d="M57.3,81c-14,6.1-19.2,19.7-21.3,30.5c-1.6,8.2-1.3,14.6-1.3,14.6s25.4-5.3,39.4-27
				c14-21.7,8.6-31.4,8.6-31.4S71.5,74.8,57.3,81"/>
		</defs>
		<clipPath id="XMLID_202_">
			<use xlink:href="#XMLID_83_"  style="overflow:visible;"/>
		</clipPath>
		
			<linearGradient id="XMLID_203_" gradientUnits="userSpaceOnUse" x1="-403.4173" y1="434.8586" x2="-402.4173" y2="434.8586" gradientTransform="matrix(49.0406 0 0 49.0406 19818.541 -21228.8359)">
			<stop  offset="0" style="stop-color:#343784"/>
			<stop  offset="0.105" style="stop-color:#343784"/>
			<stop  offset="0.3505" style="stop-color:#284C94"/>
			<stop  offset="0.8534" style="stop-color:#0A80BF"/>
			<stop  offset="1" style="stop-color:#0091CC"/>
		</linearGradient>
		<rect id="XMLID_84_" x="34.4" y="67.7" class="st17" width="53.7" height="58.4"/>
	</g>
	<g id="XMLID_68_">
		<defs>
			<path id="XMLID_69_" d="M64.1,77.9c-2.1,1-4.4,2.1-6.7,3.1c-13.4,5.8-18.7,18.6-21,29.1c3.9-7.7,10.8-16,22.8-19.1
				c7.1-1.8,13.9-1.7,19.9-0.7c2.9-6,4.1-10.8,4.5-14.4c-1.1-0.1-2.6-0.2-4.2-0.2C75.4,75.8,70.1,76.3,64.1,77.9"/>
		</defs>
		<clipPath id="XMLID_204_">
			<use xlink:href="#XMLID_69_"  style="overflow:visible;"/>
		</clipPath>
		<defs>
			<filter id="Adobe_OpacityMaskFilter_2_" filterUnits="userSpaceOnUse" x="34.8" y="73.7" width="50.3" height="38.4">
				<feColorMatrix  type="matrix" values="1 0 0 0 0  0 1 0 0 0  0 0 1 0 0  0 0 0 1 0"/>
			</filter>
		</defs>
		<mask maskUnits="userSpaceOnUse" x="34.8" y="73.7" width="50.3" height="38.4" id="XMLID_205_">
			<g id="XMLID_1_" class="st18">
				<rect id="XMLID_74_" x="35.6" y="74.8" class="st19" width="48.7" height="36.3"/>
				<g id="XMLID_70_" class="st5">
					<g id="XMLID_71_">
						<defs>
							
								<rect id="XMLID_72_" x="36" y="75.3" transform="matrix(-0.9998 -2.150541e-02 2.150541e-02 -0.9998 117.9203 187.1841)" width="48" height="35.3"/>
						</defs>
						<clipPath id="XMLID_206_" class="st19">
							<use xlink:href="#XMLID_72_"  style="overflow:visible;"/>
						</clipPath>
						
							<linearGradient id="XMLID_207_" gradientUnits="userSpaceOnUse" x1="-402.8503" y1="434.8907" x2="-401.8503" y2="434.8907" gradientTransform="matrix(53.2462 1.1453 -1.1453 53.2462 21982.4824 -22602.4941)">
							<stop  offset="0" style="stop-color:#231F20"/>
							<stop  offset="9.341151e-02" style="stop-color:#2C2829"/>
							<stop  offset="0.2439" style="stop-color:#433F40"/>
							<stop  offset="0.4327" style="stop-color:#696667"/>
							<stop  offset="0.6524" style="stop-color:#9E9C9C"/>
							<stop  offset="0.8952" style="stop-color:#E0DFE0"/>
							<stop  offset="1" style="stop-color:#FFFFFF"/>
						</linearGradient>
						<polygon id="XMLID_73_" class="st20" points="34.8,111.1 84.3,112.2 85.1,74.8 35.6,73.7 						"/>
					</g>
				</g>
			</g>
		</mask>
		<g id="XMLID_76_" class="st21">
			<g id="XMLID_77_">
				<defs>
					<rect id="XMLID_78_" x="35.6" y="74.8" width="48.7" height="36.3"/>
				</defs>
				<clipPath id="XMLID_208_">
					<use xlink:href="#XMLID_78_"  style="overflow:visible;"/>
				</clipPath>
				<g id="XMLID_79_" class="st22">
					<defs>
						
							<rect id="XMLID_80_" x="36" y="75.3" transform="matrix(-0.9998 -2.150541e-02 2.150541e-02 -0.9998 117.9203 187.1841)" width="48" height="35.3"/>
					</defs>
					<clipPath id="XMLID_209_">
						<use xlink:href="#XMLID_80_"  style="overflow:visible;"/>
					</clipPath>
					
						<linearGradient id="XMLID_210_" gradientUnits="userSpaceOnUse" x1="-402.8503" y1="434.8907" x2="-401.8503" y2="434.8907" gradientTransform="matrix(53.2462 1.1453 -1.1453 53.2462 21982.4824 -22602.4941)">
						<stop  offset="0" style="stop-color:#0091CC"/>
						<stop  offset="0.1815" style="stop-color:#0588C5"/>
						<stop  offset="0.4736" style="stop-color:#1371B2"/>
						<stop  offset="0.8379" style="stop-color:#294A93"/>
						<stop  offset="1" style="stop-color:#343784"/>
					</linearGradient>
					<polygon id="XMLID_81_" class="st23" points="34.8,111.1 84.3,112.2 85.1,74.8 35.6,73.7 					"/>
				</g>
			</g>
		</g>
	</g>
	<polygon id="XMLID_67_" class="st24" points="111.4,46.5 160.6,46.5 159.8,51.4 125.6,93 153.2,93 150.5,108 99.1,108 100.1,102.5 
		134.9,60.6 108.9,60.6 	"/>
	<g id="XMLID_64_">
		<defs>
			<polygon id="XMLID_65_" points="282.9,90.2 279.8,108 297,108 300.1,90.2 300.1,90.2 			"/>
		</defs>
		<clipPath id="XMLID_211_">
			<use xlink:href="#XMLID_65_"  style="overflow:visible;"/>
		</clipPath>
		
			<linearGradient id="XMLID_212_" gradientUnits="userSpaceOnUse" x1="-413.049" y1="436.6898" x2="-412.049" y2="436.6898" gradientTransform="matrix(20.3249 0 0 20.3249 8674.9629 -8776.5635)">
			<stop  offset="0" style="stop-color:#E68C2F"/>
			<stop  offset="1" style="stop-color:#EEDE35"/>
		</linearGradient>
		<rect id="XMLID_66_" x="279.8" y="90.2" class="st25" width="20.3" height="17.7"/>
	</g>
	<polygon id="XMLID_63_" class="st24" points="252,70.4 257.5,79.8 261.5,85.9 271.8,85.5 278.4,79.1 286.5,70.4 283.8,85.1 
		301.1,84.5 307.8,46.5 289.6,46.5 269.6,67.3 257.3,46.5 239.2,46.5 232.1,86.9 249.3,86.3 	"/>
	<polygon id="XMLID_62_" class="st24" points="228.4,108 245.6,108 248.6,90.2 231.5,90.2 	"/>
	<path id="XMLID_59_" class="st24" d="M190.1,94.4c-4,0-7-1.3-8.5-4.2h-18.5c1.2,12.5,10.6,18.9,25.3,18.9
		c15.6,0,25.7-6.6,30.6-18.9h-18.8C197.6,93.1,194.1,94.4,190.1,94.4"/>
	<path id="XMLID_58_" class="st24" d="M180.9,80.8l6-34.2h-17.3l-6,34.2c-0.5,3.1-0.7,5.9-0.6,8.5l18-0.6
		C180.4,86.6,180.3,84,180.9,80.8"/>
	<path id="XMLID_57_" class="st24" d="M221.5,80.9l6.1-34.3h-17.3l-6.1,34.3c-0.5,2.8-1.3,5.1-2.4,7l18.2-0.6
		C220.6,85.3,221.1,83.2,221.5,80.9"/>
	<text id="XMLID_56_" transform="matrix(1 0 0 1 99.1103 121.8662)"><tspan x="0" y="0" class="st24 st26 st27 st28">P</tspan><tspan x="10.1" y="0" class="st24 st26 st27">L</tspan></text>
	<text id="XMLID_55_" transform="matrix(1 0 0 1 118.6465 121.8662)" class="st24 st26 st27">A</text>
	<text id="XMLID_54_" transform="matrix(1 0 0 1 128.9677 121.8662)" class="st24 st26 st27">T</text>
	<text id="XMLID_53_" transform="matrix(1 0 0 1 137.874 121.8662)" class="st24 st26 st27">A</text>
	<text id="XMLID_52_" transform="matrix(1 0 0 1 148.7978 121.8662)" class="st24 st26 st27">F</text>
	<text id="XMLID_51_" transform="matrix(1 0 0 1 158.167 121.8662)" class="st24 st26 st27">O</text>
	<text id="XMLID_50_" transform="matrix(1 0 0 1 168.8828 121.8662)" class="st24 st26 st27">R</text>
	<text id="XMLID_49_" transform="matrix(1 0 0 1 179.1963 121.8662)" class="st24 st26 st27">M</text>
	<text id="XMLID_48_" transform="matrix(1 0 0 1 191.2334 121.8662)" class="st24 st26 st27">A</text>
	<text id="XMLID_47_" transform="matrix(1 0 0 1 202.1494 121.8662)"><tspan x="0" y="0" class="st24 st26 st27 st28"> DE</tspan><tspan x="26.7" y="0" class="st24 st26 st27"> </tspan></text>
	<text id="XMLID_46_" transform="matrix(1 0 0 1 235.2304 121.8662)" class="st24 st26 st27">E</text>
	<text id="XMLID_45_" transform="matrix(1 0 0 1 245.0947 121.8662)" class="st24 st26 st27">V</text>
	<text id="XMLID_44_" transform="matrix(1 0 0 1 255.7168 121.8662)"><tspan x="0" y="0" class="st24 st26 st27 st28">E</tspan><tspan x="9.8" y="0" class="st24 st26 st27">N</tspan></text>
	<text id="XMLID_43_" transform="matrix(1 0 0 1 276.6299 121.8662)" class="st24 st26 st27">T</text>
	<text id="XMLID_42_" transform="matrix(1 0 0 1 285.914 121.8662)" class="st24 st26 st27">O</text>
	<text id="XMLID_41_" transform="matrix(1 0 0 1 296.6299 121.8662)" class="st24 st26 st27">S</text>
</g>
</svg>
